<svg width="101" height="42" viewBox="0 0 101 42" fill="none" xmlns="http://www.w3.org/2000/svg">
<rect width="101" height="42" rx="20" fill="#7B7B7B" fill-opacity="0.1"/>
<g clip-path="url(#clip0_728_28329)">
<path d="M26.6876 10.9165C26.6876 10.5368 26.3798 10.229 26.0001 10.229C25.6204 10.229 25.3126 10.5368 25.3126 10.9165V12.7498C25.3126 13.1295 25.6204 13.4373 26.0001 13.4373C26.3798 13.4373 26.6876 13.1295 26.6876 12.7498V10.9165Z" fill="black" fill-opacity="0.8"/>
<path d="M19.3562 13.3837C19.0877 13.1152 18.6524 13.1152 18.384 13.3837C18.1155 13.6522 18.1155 14.0875 18.384 14.356L19.6803 15.6523C19.9488 15.9208 20.3841 15.9208 20.6526 15.6523C20.9211 15.3839 20.9211 14.9486 20.6526 14.6801L19.3562 13.3837Z" fill="black" fill-opacity="0.8"/>
<path d="M33.6162 14.356C33.8847 14.0875 33.8847 13.6522 33.6162 13.3837C33.3477 13.1152 32.9124 13.1152 32.6439 13.3837L31.3476 14.6801C31.0791 14.9486 31.0791 15.3839 31.3476 15.6523C31.6161 15.9208 32.0514 15.9208 32.3198 15.6523L33.6162 14.356Z" fill="black" fill-opacity="0.8"/>
<path fill-rule="evenodd" clip-rule="evenodd" d="M26.0001 14.8123C22.5828 14.8123 19.8126 17.5826 19.8126 20.9998C19.8126 24.4171 22.5828 27.1873 26.0001 27.1873C29.4173 27.1873 32.1876 24.4171 32.1876 20.9998C32.1876 17.5826 29.4173 14.8123 26.0001 14.8123ZM21.1876 20.9998C21.1876 18.342 23.3422 16.1873 26.0001 16.1873C28.658 16.1873 30.8126 18.342 30.8126 20.9998C30.8126 23.6577 28.658 25.8123 26.0001 25.8123C23.3422 25.8123 21.1876 23.6577 21.1876 20.9998Z" fill="black" fill-opacity="0.8"/>
<path d="M15.9167 20.3123C15.5371 20.3123 15.2292 20.6201 15.2292 20.9998C15.2292 21.3795 15.5371 21.6873 15.9167 21.6873H17.7501C18.1298 21.6873 18.4376 21.3795 18.4376 20.9998C18.4376 20.6201 18.1298 20.3123 17.7501 20.3123H15.9167Z" fill="black" fill-opacity="0.8"/>
<path d="M34.2501 20.3123C33.8704 20.3123 33.5626 20.6201 33.5626 20.9998C33.5626 21.3795 33.8704 21.6873 34.2501 21.6873H36.0834C36.4631 21.6873 36.7709 21.3795 36.7709 20.9998C36.7709 20.6201 36.4631 20.3123 36.0834 20.3123H34.2501Z" fill="black" fill-opacity="0.8"/>
<path d="M20.6526 27.3196C20.9211 27.0511 20.9211 26.6158 20.6526 26.3473C20.3841 26.0788 19.9488 26.0788 19.6803 26.3473L18.384 27.6437C18.1155 27.9122 18.1155 28.3475 18.384 28.616C18.6524 28.8845 19.0877 28.8845 19.3562 28.616L20.6526 27.3196Z" fill="black" fill-opacity="0.8"/>
<path d="M32.3198 26.3473C32.0514 26.0788 31.6161 26.0788 31.3476 26.3473C31.0791 26.6158 31.0791 27.0511 31.3476 27.3196L32.6439 28.616C32.9124 28.8845 33.3477 28.8845 33.6162 28.616C33.8847 28.3475 33.8847 27.9122 33.6162 27.6437L32.3198 26.3473Z" fill="black" fill-opacity="0.8"/>
<path d="M26.6876 29.2498C26.6876 28.8701 26.3798 28.5623 26.0001 28.5623C25.6204 28.5623 25.3126 28.8701 25.3126 29.2498V31.0832C25.3126 31.4629 25.6204 31.7707 26.0001 31.7707C26.3798 31.7707 26.6876 31.4629 26.6876 31.0832V29.2498Z" fill="black" fill-opacity="0.8"/>
</g>
<path d="M47.378 27.774C47.234 27.774 47.186 27.726 47.234 27.63L51.734 13.806C51.77 13.698 51.848 13.644 51.968 13.644H52.76C52.916 13.644 52.964 13.74 52.904 13.932L48.476 27.558C48.452 27.642 48.41 27.696 48.35 27.72C48.302 27.756 48.236 27.774 48.152 27.774H47.378Z" fill="black" fill-opacity="0.8"/>
<path fill-rule="evenodd" clip-rule="evenodd" d="M74.6985 13.6986C74.4466 15.3976 74.13 18.0464 75.8425 21.0125C77.5549 23.9785 80.0071 25.0288 81.6045 25.6601C81.6596 25.6819 81.7147 25.7036 81.7695 25.7251C82.1 25.855 82.4181 25.9801 82.6651 26.1028C82.8116 26.1756 82.9677 26.264 83.103 26.3745C83.236 26.4831 83.3992 26.6538 83.4762 26.9036C83.6512 27.4712 83.2628 27.9022 83.0247 28.1187C82.7419 28.376 82.3142 28.6546 81.7619 28.9735C77.0487 31.6947 71.022 30.0798 68.3009 25.3666C65.5797 20.6535 67.1946 14.6267 71.9077 11.9056C72.46 11.5867 72.9152 11.3557 73.2794 11.2393C73.5859 11.1414 74.1534 11.0206 74.5575 11.4559C74.7353 11.6476 74.8015 11.8742 74.8291 12.0437C74.8571 12.2161 74.8556 12.3955 74.8454 12.5588C74.8282 12.834 74.7774 13.172 74.7247 13.5232C74.716 13.5814 74.7072 13.64 74.6985 13.6986ZM73.4583 12.6425C73.2504 12.7345 72.9697 12.8802 72.5952 13.0964C68.5397 15.4378 67.1502 20.6236 69.4916 24.6791C71.8331 28.7347 77.0189 30.1242 81.0744 27.7827C81.4489 27.5665 81.7154 27.3963 81.899 27.2622C81.7326 27.1885 81.5275 27.1077 81.2739 27.0078C81.218 26.9858 81.1598 26.9629 81.0991 26.9389C79.4315 26.2798 76.6059 25.0848 74.6517 21.7C72.6975 18.3152 73.0753 15.2707 73.3384 13.497C73.3479 13.4324 73.3572 13.3705 73.3661 13.3111C73.4064 13.0415 73.439 12.8235 73.4583 12.6425ZM73.825 12.5188C73.8246 12.5193 73.8183 12.5203 73.8075 12.5204C73.82 12.5183 73.8254 12.5183 73.825 12.5188ZM82.1794 27.0208C82.1848 27.0115 82.1888 27.0066 82.1895 27.0065C82.1901 27.0064 82.1874 27.0111 82.1794 27.0208Z" fill="#8CA8FF"/>
<defs>
<clipPath id="clip0_728_28329">
<rect width="22" height="22" fill="white" transform="translate(15 10)"/>
</clipPath>
</defs>
</svg>
