<svg width="101" height="42" viewBox="0 0 101 42" fill="none" xmlns="http://www.w3.org/2000/svg">
<rect width="101" height="42" rx="20" fill="white" fill-opacity="0.1"/>
<g clip-path="url(#clip0_794_28317)">
<path d="M26.6876 10.917C26.6876 10.5373 26.3798 10.2295 26.0001 10.2295C25.6204 10.2295 25.3126 10.5373 25.3126 10.917V12.7503C25.3126 13.13 25.6204 13.4378 26.0001 13.4378C26.3798 13.4378 26.6876 13.13 26.6876 12.7503V10.917Z" fill="white" fill-opacity="0.8"/>
<path d="M19.3562 13.3842C19.0877 13.1157 18.6524 13.1157 18.384 13.3842C18.1155 13.6527 18.1155 14.088 18.384 14.3565L19.6803 15.6528C19.9488 15.9213 20.3841 15.9213 20.6526 15.6528C20.9211 15.3843 20.9211 14.949 20.6526 14.6806L19.3562 13.3842Z" fill="white" fill-opacity="0.8"/>
<path d="M33.6162 14.3565C33.8847 14.088 33.8847 13.6527 33.6162 13.3842C33.3477 13.1157 32.9124 13.1157 32.6439 13.3842L31.3476 14.6806C31.0791 14.949 31.0791 15.3843 31.3476 15.6528C31.6161 15.9213 32.0514 15.9213 32.3198 15.6528L33.6162 14.3565Z" fill="white" fill-opacity="0.8"/>
<path fill-rule="evenodd" clip-rule="evenodd" d="M26.0001 14.8128C22.5828 14.8128 19.8126 17.5831 19.8126 21.0003C19.8126 24.4176 22.5828 27.1878 26.0001 27.1878C29.4173 27.1878 32.1876 24.4176 32.1876 21.0003C32.1876 17.5831 29.4173 14.8128 26.0001 14.8128ZM21.1876 21.0003C21.1876 18.3425 23.3422 16.1878 26.0001 16.1878C28.658 16.1878 30.8126 18.3425 30.8126 21.0003C30.8126 23.6582 28.658 25.8128 26.0001 25.8128C23.3422 25.8128 21.1876 23.6582 21.1876 21.0003Z" fill="white" fill-opacity="0.8"/>
<path d="M15.9167 20.3128C15.5371 20.3128 15.2292 20.6206 15.2292 21.0003C15.2292 21.38 15.5371 21.6878 15.9167 21.6878H17.7501C18.1298 21.6878 18.4376 21.38 18.4376 21.0003C18.4376 20.6206 18.1298 20.3128 17.7501 20.3128H15.9167Z" fill="white" fill-opacity="0.8"/>
<path d="M34.2501 20.3128C33.8704 20.3128 33.5626 20.6206 33.5626 21.0003C33.5626 21.38 33.8704 21.6878 34.2501 21.6878H36.0834C36.4631 21.6878 36.7709 21.38 36.7709 21.0003C36.7709 20.6206 36.4631 20.3128 36.0834 20.3128H34.2501Z" fill="white" fill-opacity="0.8"/>
<path d="M20.6526 27.3201C20.9211 27.0516 20.9211 26.6163 20.6526 26.3478C20.3841 26.0793 19.9488 26.0793 19.6803 26.3478L18.384 27.6442C18.1155 27.9127 18.1155 28.348 18.384 28.6165C18.6524 28.8849 19.0877 28.8849 19.3562 28.6165L20.6526 27.3201Z" fill="white" fill-opacity="0.8"/>
<path d="M32.3198 26.3478C32.0514 26.0793 31.6161 26.0793 31.3476 26.3478C31.0791 26.6163 31.0791 27.0516 31.3476 27.3201L32.6439 28.6165C32.9124 28.8849 33.3477 28.8849 33.6162 28.6165C33.8847 28.348 33.8847 27.9127 33.6162 27.6442L32.3198 26.3478Z" fill="white" fill-opacity="0.8"/>
<path d="M26.6876 29.2503C26.6876 28.8706 26.3798 28.5628 26.0001 28.5628C25.6204 28.5628 25.3126 28.8706 25.3126 29.2503V31.0837C25.3126 31.4634 25.6204 31.7712 26.0001 31.7712C26.3798 31.7712 26.6876 31.4634 26.6876 31.0837V29.2503Z" fill="white" fill-opacity="0.8"/>
</g>
<path d="M47.378 27.774C47.234 27.774 47.186 27.726 47.234 27.63L51.734 13.806C51.77 13.698 51.848 13.644 51.968 13.644H52.76C52.916 13.644 52.964 13.74 52.904 13.932L48.476 27.558C48.452 27.642 48.41 27.696 48.35 27.72C48.302 27.756 48.236 27.774 48.152 27.774H47.378Z" fill="white" fill-opacity="0.8"/>
<path fill-rule="evenodd" clip-rule="evenodd" d="M74.6985 13.6991C74.4466 15.3981 74.13 18.0469 75.8425 21.013C77.5549 23.979 80.0071 25.0293 81.6045 25.6606C81.6596 25.6824 81.7147 25.7041 81.7695 25.7256C82.1 25.8555 82.4181 25.9806 82.6651 26.1033C82.8116 26.1761 82.9677 26.2645 83.103 26.375C83.236 26.4836 83.3992 26.6543 83.4762 26.9041C83.6512 27.4717 83.2628 27.9027 83.0247 28.1192C82.7419 28.3765 82.3142 28.6551 81.7619 28.974C77.0487 31.6952 71.022 30.0803 68.3009 25.3671C65.5797 20.6539 67.1946 14.6272 71.9077 11.9061C72.46 11.5872 72.9152 11.3562 73.2794 11.2398C73.5859 11.1419 74.1534 11.0211 74.5575 11.4564C74.7353 11.648 74.8015 11.8746 74.8291 12.0441C74.8571 12.2166 74.8556 12.396 74.8454 12.5593C74.8282 12.8345 74.7774 13.1725 74.7247 13.5237C74.716 13.5819 74.7072 13.6404 74.6985 13.6991ZM73.4583 12.643C73.2504 12.7349 72.9697 12.8806 72.5952 13.0969C68.5397 15.4383 67.1502 20.6241 69.4916 24.6796C71.8331 28.7351 77.0189 30.1247 81.0744 27.7832C81.4489 27.567 81.7154 27.3968 81.899 27.2627C81.7326 27.1889 81.5275 27.1082 81.2739 27.0083C81.218 26.9863 81.1598 26.9634 81.0991 26.9394C79.4315 26.2803 76.6059 25.0853 74.6517 21.7005C72.6975 18.3157 73.0753 15.2712 73.3384 13.4974C73.3479 13.4329 73.3572 13.371 73.3661 13.3116C73.4064 13.042 73.439 12.824 73.4583 12.643ZM73.825 12.5193C73.8246 12.5198 73.8183 12.5208 73.8075 12.5209C73.82 12.5188 73.8254 12.5188 73.825 12.5193ZM82.1794 27.0213C82.1848 27.012 82.1888 27.0071 82.1895 27.007C82.1901 27.0069 82.1874 27.0116 82.1794 27.0213Z" fill="#8CA8FF"/>
<defs>
<clipPath id="clip0_794_28317">
<rect width="22" height="22" fill="white" transform="translate(15 10)"/>
</clipPath>
</defs>
</svg>
