<svg width="52" height="42" viewBox="0 0 52 42" fill="none" xmlns="http://www.w3.org/2000/svg">
<rect width="52" height="42" rx="20" fill="#7B7B7B" fill-opacity="0.1"/>
<path d="M24.2095 17.5455C24.6791 16.1367 26.5376 15.8351 27.4286 17.0231C27.9505 17.719 27.9141 18.6852 27.3413 19.3398L26.4987 20.3028C25.7339 21.1768 25.3124 22.2986 25.3124 23.4599V23.7502C25.3124 24.1299 25.6202 24.4377 25.9999 24.4377C26.3796 24.4377 26.6874 24.1299 26.6874 23.7502V23.4599C26.6874 22.6317 26.988 21.8316 27.5335 21.2082L28.3761 20.2453C29.3767 19.1017 29.4403 17.4137 28.5286 16.1981C26.9721 14.1228 23.7254 14.6497 22.9051 17.1107L22.5977 18.0328C22.4776 18.393 22.6723 18.7823 23.0325 18.9024C23.3927 19.0225 23.7821 18.8278 23.9021 18.4676L24.2095 17.5455Z" fill="#8CA8FF"/>
<path fill-rule="evenodd" clip-rule="evenodd" d="M25.9999 11.146C20.5576 11.146 16.1458 15.5579 16.1458 21.0002C16.1458 26.4425 20.5576 30.8543 25.9999 30.8543C31.4422 30.8543 35.8541 26.4425 35.8541 21.0002C35.8541 15.5579 31.4422 11.146 25.9999 11.146ZM17.5208 21.0002C17.5208 16.3172 21.317 12.521 25.9999 12.521C30.6828 12.521 34.4791 16.3172 34.4791 21.0002C34.4791 25.6831 30.6828 29.4793 25.9999 29.4793C21.317 29.4793 17.5208 25.6831 17.5208 21.0002Z" fill="#8CA8FF"/>
<path d="M26.9166 26.5002C26.9166 27.0064 26.5062 27.4168 25.9999 27.4168C25.4937 27.4168 25.0833 27.0064 25.0833 26.5002C25.0833 25.9939 25.4937 25.5835 25.9999 25.5835C26.5062 25.5835 26.9166 25.9939 26.9166 26.5002Z" fill="#8CA8FF"/>
</svg>
