<svg width="52" height="42" viewBox="0 0 52 42" fill="none" xmlns="http://www.w3.org/2000/svg">
<rect width="52" height="42" rx="20" fill="#7B7B7B" fill-opacity="0.1"/>
<path fill-rule="evenodd" clip-rule="evenodd" d="M27.8567 15.2781C27.2769 13.4349 24.7232 13.4349 24.1434 15.2781C24.0608 15.5409 23.833 15.6981 23.5984 15.6981C21.6651 15.6981 20.9657 18.1857 22.4436 19.2949C22.6473 19.4478 22.7429 19.7309 22.6592 19.997C22.3751 20.9001 22.7394 21.7449 23.361 22.2114C23.9857 22.6802 24.9035 22.7871 25.6706 22.2114C25.8686 22.0628 26.1315 22.0628 26.3295 22.2114C27.0967 22.7871 28.0144 22.6803 28.6392 22.2114C29.2607 21.7449 29.6251 20.9001 29.341 19.997C29.2573 19.7309 29.3529 19.4478 29.5565 19.2949C31.0345 18.1857 30.335 15.6981 28.4017 15.6981C28.1671 15.6981 27.9394 15.5409 27.8567 15.2781ZM23.5984 17.0731C24.4579 17.0731 25.1997 16.5027 25.4551 15.6907C25.6312 15.1307 26.3689 15.1307 26.5451 15.6907C26.8005 16.5027 27.5423 17.0731 28.4017 17.0731C28.6676 17.0731 28.866 17.2367 28.9467 17.4931C29.0279 17.7512 28.9616 18.0223 28.7312 18.1952C28.0498 18.7066 27.775 19.6009 28.0294 20.4096C28.1233 20.7081 28.0109 20.9637 27.8138 21.1116C27.62 21.2571 27.3773 21.2785 27.1549 21.1116C26.4679 20.596 25.5323 20.596 24.8453 21.1116C24.6229 21.2785 24.3802 21.2571 24.1863 21.1116C23.9893 20.9637 23.8769 20.7081 23.9708 20.4096C24.2252 19.6009 23.9504 18.7066 23.269 18.1952C23.0386 18.0223 22.9723 17.7512 23.0535 17.4931C23.1341 17.2367 23.3326 17.0731 23.5984 17.0731Z" fill="#8CA8FF"/>
<path fill-rule="evenodd" clip-rule="evenodd" d="M26.0001 10.229C21.5703 10.229 17.9792 13.8201 17.9792 18.2498C17.9792 20.1883 18.6677 21.9675 19.8126 23.354L19.8126 28.7355C19.8125 29.4051 19.8125 29.9852 19.8773 30.4202C19.9426 30.8589 20.11 31.4097 20.6768 31.6632C21.235 31.9129 21.759 31.6837 22.1382 31.45C22.5176 31.2162 22.9687 30.8402 23.4932 30.403L24.3949 29.6513C24.8964 29.2333 25.2246 28.9614 25.4969 28.7865C25.7528 28.6222 25.8901 28.5904 26.0001 28.5904C26.1101 28.5904 26.2474 28.6222 26.5032 28.7865C26.7755 28.9614 27.1038 29.2333 27.6052 29.6513L28.507 30.4029C29.0315 30.8402 29.4826 31.2162 29.8619 31.45C30.2411 31.6837 30.7652 31.9129 31.3234 31.6632C31.8902 31.4097 32.0576 30.8589 32.1229 30.4202C32.1877 29.9852 32.1876 29.4051 32.1876 28.7355L32.1875 23.354C33.3324 21.9675 34.0209 20.1883 34.0209 18.2498C34.0209 13.8201 30.4299 10.229 26.0001 10.229ZM19.3542 18.2498C19.3542 14.5794 22.3297 11.604 26.0001 11.604C29.6705 11.604 32.6459 14.5794 32.6459 18.2498C32.6459 19.9358 32.019 21.4736 30.9846 22.6456C29.7659 24.0264 27.9849 24.8957 26.0001 24.8957C24.0154 24.8957 22.2346 24.0266 21.0159 22.646C19.9813 21.4739 19.3542 19.9359 19.3542 18.2498ZM21.2373 30.2177C21.1894 29.8966 21.1876 29.4212 21.1876 28.6803V24.667C22.5278 25.6736 24.1945 26.2707 26.0001 26.2707C27.8057 26.2707 29.4723 25.6736 30.8126 24.667V28.6803C30.8126 29.4212 30.8107 29.8966 30.7629 30.2177C30.7536 30.2802 30.7438 30.3276 30.7349 30.3631C30.6977 30.3457 30.648 30.3193 30.5833 30.2794C30.2984 30.1039 29.9236 29.7937 29.3462 29.3124L28.4537 28.5686C27.993 28.1845 27.5992 27.8562 27.2463 27.6296C26.8687 27.3871 26.4714 27.2154 26.0001 27.2154C25.5288 27.2154 25.1314 27.3871 24.7539 27.6296C24.401 27.8562 24.0072 28.1845 23.5464 28.5686L22.654 29.3124C22.0766 29.7937 21.7017 30.1039 21.4168 30.2794C21.3522 30.3193 21.3024 30.3457 21.2653 30.3631C21.2563 30.3276 21.2466 30.2802 21.2373 30.2177ZM30.7009 30.4573C30.7007 30.4569 30.7024 30.4535 30.7065 30.4484C30.7031 30.4552 30.7011 30.4578 30.7009 30.4573ZM30.8186 30.3945C30.8243 30.3946 30.8275 30.3952 30.8276 30.3956C30.8278 30.3959 30.825 30.3959 30.8186 30.3945ZM21.1725 30.3956C21.1727 30.3952 21.1759 30.3946 21.1816 30.3945C21.1752 30.3959 21.1724 30.3959 21.1725 30.3956ZM21.2993 30.4573C21.2994 30.4569 21.2977 30.4535 21.2937 30.4484C21.2941 30.4492 21.2945 30.45 21.2949 30.4507C21.2975 30.4558 21.2991 30.4577 21.2993 30.4573Z" fill="#8CA8FF"/>
</svg>
