<svg width="52" height="43" viewBox="0 0 52 43" fill="none" xmlns="http://www.w3.org/2000/svg">
<rect y="0.75" width="52" height="42" rx="20" fill="white" fill-opacity="0.1"/>
<path fill-rule="evenodd" clip-rule="evenodd" d="M25.9998 14.417C24.1014 14.417 22.5623 15.956 22.5623 17.8545C22.5623 19.753 24.1014 21.292 25.9998 21.292C27.8983 21.292 29.4373 19.753 29.4373 17.8545C29.4373 15.956 27.8983 14.417 25.9998 14.417ZM23.9373 17.8545C23.9373 16.7154 24.8608 15.792 25.9998 15.792C27.1389 15.792 28.0623 16.7154 28.0623 17.8545C28.0623 18.9936 27.1389 19.917 25.9998 19.917C24.8608 19.917 23.9373 18.9936 23.9373 17.8545Z" fill="#8CA8FF"/>
<path fill-rule="evenodd" clip-rule="evenodd" d="M23.2498 22.667C21.3514 22.667 19.8123 24.206 19.8123 26.1045C19.8123 28.003 21.3514 29.542 23.2498 29.542H28.7498C30.6483 29.542 32.1873 28.003 32.1873 26.1045C32.1873 24.206 30.6483 22.667 28.7498 22.667H23.2498ZM21.1873 26.1045C21.1873 24.9654 22.1108 24.042 23.2498 24.042H28.7498C29.8889 24.042 30.8123 24.9654 30.8123 26.1045C30.8123 27.2436 29.8889 28.167 28.7498 28.167H23.2498C22.1108 28.167 21.1873 27.2436 21.1873 26.1045Z" fill="#8CA8FF"/>
<path d="M22.106 20.2733C21.9614 20.041 21.6901 19.917 21.4165 19.917C20.2774 19.917 19.354 18.9936 19.354 17.8545C19.354 16.7154 20.2774 15.792 21.4165 15.792C21.6901 15.792 21.9614 15.668 22.106 15.4357C22.1124 15.4255 22.1188 15.4152 22.1253 15.405C22.366 15.025 22.244 14.487 21.7969 14.4378C21.672 14.4241 21.5451 14.417 21.4165 14.417C19.518 14.417 17.979 15.956 17.979 17.8545C17.979 19.753 19.518 21.292 21.4165 21.292C21.5451 21.292 21.672 21.2849 21.7969 21.2712C22.244 21.222 22.366 20.684 22.1253 20.304C22.1188 20.2938 22.1124 20.2835 22.106 20.2733Z" fill="#8CA8FF"/>
<path d="M19.3158 27.5408C19.2117 27.3672 19.028 27.2503 18.8256 27.2503H18.6665C17.5274 27.2503 16.604 26.3269 16.604 25.1878C16.604 24.0487 17.5274 23.1253 18.6665 23.1253H18.8256C19.028 23.1253 19.2117 23.0085 19.3158 22.8349C19.5698 22.4111 19.2941 21.7503 18.8001 21.7503H18.6665C16.768 21.7503 15.229 23.2893 15.229 25.1878C15.229 27.0863 16.768 28.6253 18.6665 28.6253H18.8001C19.2941 28.6253 19.5698 27.9646 19.3158 27.5408Z" fill="#8CA8FF"/>
<path d="M29.8744 20.304C29.6337 20.684 29.7557 21.222 30.2028 21.2712C30.3277 21.2849 30.4546 21.292 30.5832 21.292C32.4817 21.292 34.0207 19.753 34.0207 17.8545C34.0207 15.956 32.4817 14.417 30.5832 14.417C30.4546 14.417 30.3277 14.4241 30.2028 14.4378C29.7557 14.487 29.6337 15.025 29.8744 15.405C29.8809 15.4152 29.8873 15.4255 29.8937 15.4357C30.0383 15.668 30.3096 15.792 30.5832 15.792C31.7223 15.792 32.6457 16.7154 32.6457 17.8545C32.6457 18.9936 31.7223 19.917 30.5832 19.917C30.3096 19.917 30.0383 20.041 29.8937 20.2733C29.8873 20.2835 29.8809 20.2938 29.8744 20.304Z" fill="#8CA8FF"/>
<path d="M32.6839 27.5408C32.4299 27.9646 32.7055 28.6253 33.1996 28.6253H33.3332C35.2317 28.6253 36.7707 27.0863 36.7707 25.1878C36.7707 23.2893 35.2317 21.7503 33.3332 21.7503H33.1996C32.7055 21.7503 32.4299 22.4111 32.6839 22.8349C32.788 23.0085 32.9716 23.1253 33.174 23.1253H33.3332C34.4723 23.1253 35.3957 24.0487 35.3957 25.1878C35.3957 26.3269 34.4723 27.2503 33.3332 27.2503H33.174C32.9716 27.2503 32.788 27.3672 32.6839 27.5408Z" fill="#8CA8FF"/>
</svg>
