<svg width="20" height="20" viewBox="0 0 20 20" fill="none" xmlns="http://www.w3.org/2000/svg">
<path fill-rule="evenodd" clip-rule="evenodd" d="M10 20C15.5228 20 20 15.5228 20 10C20 4.47715 15.5228 0 10 0C4.47715 0 0 4.47715 0 10C0 15.5228 4.47715 20 10 20ZM10.75 6C10.75 5.58579 10.4142 5.25 10 5.25C9.58579 5.25 9.25 5.58579 9.25 6V12.9362C9.23578 12.9251 9.22128 12.9137 9.20649 12.9018C8.88386 12.6427 8.50033 12.2573 7.93054 11.6824L6.53269 10.272C6.24111 9.97784 5.76624 9.97573 5.47204 10.2673C5.17784 10.5589 5.17573 11.0338 5.46731 11.328L6.89565 12.7691C7.42704 13.3053 7.87022 13.7525 8.26724 14.0713C8.68366 14.4057 9.12131 14.6601 9.6545 14.7281C9.7692 14.7427 9.8846 14.75 10 14.75C10.1154 14.75 10.2308 14.7427 10.3455 14.7281C10.8787 14.6601 11.3163 14.4057 11.7328 14.0713C12.1298 13.7525 12.573 13.3053 13.1043 12.7691L14.5327 11.328C14.8243 11.0338 14.8222 10.5589 14.528 10.2673C14.2338 9.97573 13.7589 9.97784 13.4673 10.272L12.0695 11.6824C11.4997 12.2573 11.1161 12.6427 10.7935 12.9018C10.7787 12.9137 10.7642 12.9251 10.75 12.9362V6Z" fill="#D65757"/>
</svg>
