<svg width="56" height="56" viewBox="0 0 56 56" fill="none" xmlns="http://www.w3.org/2000/svg">
<rect width="56" height="56" rx="5" fill="#4C7BFE"/>
<path d="M36.555 11.565C37.125 11.565 37.485 11.58 37.635 11.61C37.635 13.17 37.44 14.535 37.05 15.705C36.93 18.945 36.78 23.565 36.6 29.565C36.45 35.535 36.345 39.48 36.285 41.4C38.055 41.64 39.375 41.895 40.245 42.165V44.325C38.355 45.135 35.76 45.54 32.46 45.54C32.28 45.21 32.04 44.4 31.74 43.11C28.98 44.61 26.985 45.42 25.755 45.54C22.695 45.54 20.4 44.43 18.87 42.21C17.37 39.99 16.62 37.14 16.62 33.66C16.62 30.15 17.385 27.21 18.915 24.84C20.445 22.44 22.71 21.24 25.71 21.24C27.36 21.24 29.1 21.75 30.93 22.77L30.705 16.2C29.295 16.05 28.11 15.825 27.15 15.525C27.15 14.775 27.255 13.695 27.465 12.285C29.235 11.805 32.265 11.565 36.555 11.565ZM26.43 25.65C23.85 25.65 22.56 28.14 22.56 33.12C22.56 35.97 23.07 38.115 24.09 39.555C24.66 40.395 25.395 40.815 26.295 40.815C27.825 40.815 29.55 40.29 31.47 39.24L31.065 27.63C29.355 26.31 27.81 25.65 26.43 25.65Z" fill="white"/>
</svg>
