<svg width="51" height="29" viewBox="0 0 51 29" fill="none" xmlns="http://www.w3.org/2000/svg">
<path d="M44.7146 27.48C44.7146 28.659 7.70434 28.659 7.70434 27.48C7.70434 26.3011 0.850586 3.9011 0.850586 3.9011L14.5581 13.3327L25.5241 0.364258L36.4901 13.3327L50.1976 3.9011C50.1976 3.9011 44.7146 26.3011 44.7146 27.48Z" fill="#B57514"/>
<path d="M20.3352 23.0043C19.6446 23.0043 18.9679 22.9063 18.3052 22.7103C17.6519 22.5049 17.1012 22.2249 16.6532 21.8703L17.4372 20.4563C17.7919 20.7456 18.2212 20.9789 18.7252 21.1563C19.2292 21.3336 19.7566 21.4223 20.3072 21.4223C20.9606 21.4223 21.4692 21.2916 21.8332 21.0303C22.1972 20.7596 22.3792 20.3956 22.3792 19.9383C22.3792 19.4903 22.2112 19.1356 21.8752 18.8743C21.5392 18.6129 20.9979 18.4823 20.2512 18.4823H19.3552V17.2363L22.1552 13.9043L22.3932 14.5903H17.1292V13.0643H23.8072V14.2823L21.0072 17.6143L20.0552 17.0543H20.6012C21.8052 17.0543 22.7059 17.3249 23.3032 17.8663C23.9099 18.3983 24.2132 19.0843 24.2132 19.9243C24.2132 20.4749 24.0732 20.9836 23.7932 21.4503C23.5132 21.9169 23.0839 22.2949 22.5052 22.5843C21.9359 22.8643 21.2126 23.0043 20.3352 23.0043ZM25.3925 17.8643V13.3451H26.6441V14.6219L26.4677 14.2523C26.6021 13.9331 26.8177 13.6923 27.1145 13.5299C27.4113 13.3619 27.7725 13.2779 28.1981 13.2779V14.4875C28.1421 14.4819 28.0917 14.4791 28.0469 14.4791C28.0021 14.4735 27.9545 14.4707 27.9041 14.4707C27.5457 14.4707 27.2545 14.5743 27.0305 14.7815C26.8121 14.9831 26.7029 15.2995 26.7029 15.7307V17.8643H25.3925ZM31.1368 17.9315C30.7112 17.9315 30.3276 17.8363 29.986 17.6459C29.6444 17.4499 29.3728 17.1783 29.1712 16.8311C28.9752 16.4839 28.8772 16.0751 28.8772 15.6047C28.8772 15.1287 28.9752 14.7171 29.1712 14.3699C29.3728 14.0227 29.6444 13.7539 29.986 13.5635C30.3276 13.3731 30.7112 13.2779 31.1368 13.2779C31.5176 13.2779 31.8508 13.3619 32.1364 13.5299C32.422 13.6979 32.6432 13.9527 32.8 14.2943C32.9568 14.6359 33.0352 15.0727 33.0352 15.6047C33.0352 16.1311 32.9596 16.5679 32.8084 16.9151C32.6572 17.2567 32.4388 17.5115 32.1532 17.6795C31.8732 17.8475 31.5344 17.9315 31.1368 17.9315ZM31.3636 16.8563C31.5764 16.8563 31.7696 16.8059 31.9432 16.7051C32.1168 16.6043 32.254 16.4615 32.3548 16.2767C32.4612 16.0863 32.5144 15.8623 32.5144 15.6047C32.5144 15.3415 32.4612 15.1175 32.3548 14.9327C32.254 14.7479 32.1168 14.6051 31.9432 14.5043C31.7696 14.4035 31.5764 14.3531 31.3636 14.3531C31.1452 14.3531 30.9492 14.4035 30.7756 14.5043C30.602 14.6051 30.462 14.7479 30.3556 14.9327C30.2548 15.1175 30.2044 15.3415 30.2044 15.6047C30.2044 15.8623 30.2548 16.0863 30.3556 16.2767C30.462 16.4615 30.602 16.6043 30.7756 16.7051C30.9492 16.8059 31.1452 16.8563 31.3636 16.8563ZM32.548 17.8643V16.9403L32.5732 15.5963L32.4892 14.2607V11.6315H33.7996V17.8643H32.548Z" fill="black"/>
</svg>
