<svg width="21" height="21" viewBox="0 0 21 21" fill="none" xmlns="http://www.w3.org/2000/svg">
<path d="M10.3633 0.0419922C4.84328 0.0419922 0.363281 4.52199 0.363281 10.042C0.363281 15.562 4.84328 20.042 10.3633 20.042C15.8833 20.042 20.3633 15.562 20.3633 10.042C20.3633 4.52199 15.8833 0.0419922 10.3633 0.0419922ZM2.36328 10.042C2.36328 9.43199 2.44328 8.83199 2.57328 8.26199L7.35328 13.042V14.042C7.35328 15.142 8.25328 16.042 9.35328 16.042V17.972C5.42328 17.472 2.36328 14.112 2.36328 10.042ZM16.2533 15.442C15.9933 14.632 15.2533 14.042 14.3533 14.042H13.3533V11.042C13.3533 10.492 12.9033 10.042 12.3533 10.042H6.35328V8.04199H8.35328C8.90328 8.04199 9.35328 7.59199 9.35328 7.04199V5.04199H11.3533C12.4533 5.04199 13.3533 4.14199 13.3533 3.04199V2.63199C16.2833 3.81199 18.3633 6.69199 18.3633 10.042C18.3633 12.122 17.5533 14.022 16.2533 15.442Z" fill="black"/>
</svg>
