<svg width="25" height="13" viewBox="0 0 25 13" fill="none" xmlns="http://www.w3.org/2000/svg">
<path d="M4.86328 7.54199C5.96328 7.54199 6.86328 6.64199 6.86328 5.54199C6.86328 4.44199 5.96328 3.54199 4.86328 3.54199C3.76328 3.54199 2.86328 4.44199 2.86328 5.54199C2.86328 6.64199 3.76328 7.54199 4.86328 7.54199ZM5.99328 8.64199C5.62328 8.58199 5.25328 8.54199 4.86328 8.54199C3.87328 8.54199 2.93328 8.75199 2.08328 9.12199C1.34328 9.44199 0.863281 10.162 0.863281 10.972V12.542H5.36328V10.932C5.36328 10.102 5.59328 9.32199 5.99328 8.64199ZM20.8633 7.54199C21.9633 7.54199 22.8633 6.64199 22.8633 5.54199C22.8633 4.44199 21.9633 3.54199 20.8633 3.54199C19.7633 3.54199 18.8633 4.44199 18.8633 5.54199C18.8633 6.64199 19.7633 7.54199 20.8633 7.54199ZM24.8633 10.972C24.8633 10.162 24.3833 9.44199 23.6433 9.12199C22.7933 8.75199 21.8533 8.54199 20.8633 8.54199C20.4733 8.54199 20.1033 8.58199 19.7333 8.64199C20.1333 9.32199 20.3633 10.102 20.3633 10.932V12.542H24.8633V10.972ZM17.1033 8.19199C15.9333 7.67199 14.4933 7.29199 12.8633 7.29199C11.2333 7.29199 9.79328 7.68199 8.62328 8.19199C7.54328 8.67199 6.86328 9.75199 6.86328 10.932V12.542H18.8633V10.932C18.8633 9.75199 18.1833 8.67199 17.1033 8.19199ZM8.93328 10.542C9.02328 10.312 9.06328 10.152 9.84328 9.85199C10.8133 9.47199 11.8333 9.29199 12.8633 9.29199C13.8933 9.29199 14.9133 9.47199 15.8833 9.85199C16.6533 10.152 16.6933 10.312 16.7933 10.542H8.93328ZM12.8633 2.54199C13.4133 2.54199 13.8633 2.99199 13.8633 3.54199C13.8633 4.09199 13.4133 4.54199 12.8633 4.54199C12.3133 4.54199 11.8633 4.09199 11.8633 3.54199C11.8633 2.99199 12.3133 2.54199 12.8633 2.54199ZM12.8633 0.541992C11.2033 0.541992 9.86328 1.88199 9.86328 3.54199C9.86328 5.20199 11.2033 6.54199 12.8633 6.54199C14.5233 6.54199 15.8633 5.20199 15.8633 3.54199C15.8633 1.88199 14.5233 0.541992 12.8633 0.541992Z" fill="black"/>
</svg>
