<svg width="51" height="29" viewBox="0 0 51 29" fill="none" xmlns="http://www.w3.org/2000/svg">
<path d="M44.7146 27.48C44.7146 28.659 7.70434 28.659 7.70434 27.48C7.70434 26.3011 0.850586 3.9011 0.850586 3.9011L14.5581 13.3327L25.5241 0.364258L36.4901 13.3327L50.1976 3.9011C50.1976 3.9011 44.7146 26.3011 44.7146 27.48Z" fill="#CFCFCF"/>
<path d="M16.4849 22.8643V21.6463L20.3769 17.9503C20.7036 17.6423 20.9462 17.3716 21.1049 17.1383C21.2636 16.9049 21.3662 16.6903 21.4129 16.4943C21.4689 16.2889 21.4969 16.0976 21.4969 15.9203C21.4969 15.4723 21.3429 15.1269 21.0349 14.8843C20.7269 14.6323 20.2742 14.5063 19.6769 14.5063C19.2009 14.5063 18.7669 14.5903 18.3749 14.7583C17.9922 14.9263 17.6609 15.1829 17.3809 15.5283L16.1069 14.5483C16.4896 14.0349 17.0029 13.6383 17.6469 13.3583C18.3002 13.0689 19.0282 12.9243 19.8309 12.9243C20.5402 12.9243 21.1562 13.0409 21.6789 13.2743C22.2109 13.4983 22.6169 13.8203 22.8969 14.2403C23.1862 14.6603 23.3309 15.1596 23.3309 15.7383C23.3309 16.0556 23.2889 16.3729 23.2049 16.6903C23.1209 16.9983 22.9622 17.3249 22.7289 17.6703C22.4956 18.0156 22.1549 18.4029 21.7069 18.8323L18.3609 22.0103L17.9829 21.3243H23.7089V22.8643H16.4849ZM27.4949 13.2779C27.8533 13.2779 28.1725 13.3507 28.4525 13.4963C28.7381 13.6363 28.9621 13.8547 29.1245 14.1515C29.2869 14.4427 29.3681 14.8179 29.3681 15.2771V17.8643H28.0577V15.4787C28.0577 15.1147 27.9765 14.8459 27.8141 14.6723C27.6573 14.4987 27.4333 14.4119 27.1421 14.4119C26.9349 14.4119 26.7473 14.4567 26.5793 14.5463C26.4169 14.6303 26.2881 14.7619 26.1929 14.9411C26.1033 15.1203 26.0585 15.3499 26.0585 15.6299V17.8643H24.7481V13.3451H25.9997V14.5967L25.7645 14.2187C25.9269 13.9163 26.1593 13.6839 26.4617 13.5215C26.7641 13.3591 27.1085 13.2779 27.4949 13.2779ZM32.7812 17.9315C32.3556 17.9315 31.972 17.8363 31.6304 17.6459C31.2888 17.4499 31.0172 17.1783 30.8156 16.8311C30.6196 16.4839 30.5216 16.0751 30.5216 15.6047C30.5216 15.1287 30.6196 14.7171 30.8156 14.3699C31.0172 14.0227 31.2888 13.7539 31.6304 13.5635C31.972 13.3731 32.3556 13.2779 32.7812 13.2779C33.162 13.2779 33.4952 13.3619 33.7808 13.5299C34.0664 13.6979 34.2876 13.9527 34.4444 14.2943C34.6012 14.6359 34.6796 15.0727 34.6796 15.6047C34.6796 16.1311 34.604 16.5679 34.4528 16.9151C34.3016 17.2567 34.0832 17.5115 33.7976 17.6795C33.5176 17.8475 33.1788 17.9315 32.7812 17.9315ZM33.008 16.8563C33.2208 16.8563 33.414 16.8059 33.5876 16.7051C33.7612 16.6043 33.8984 16.4615 33.9992 16.2767C34.1056 16.0863 34.1588 15.8623 34.1588 15.6047C34.1588 15.3415 34.1056 15.1175 33.9992 14.9327C33.8984 14.7479 33.7612 14.6051 33.5876 14.5043C33.414 14.4035 33.2208 14.3531 33.008 14.3531C32.7896 14.3531 32.5936 14.4035 32.42 14.5043C32.2464 14.6051 32.1064 14.7479 32 14.9327C31.8992 15.1175 31.8488 15.3415 31.8488 15.6047C31.8488 15.8623 31.8992 16.0863 32 16.2767C32.1064 16.4615 32.2464 16.6043 32.42 16.7051C32.5936 16.8059 32.7896 16.8563 33.008 16.8563ZM34.1924 17.8643V16.9403L34.2176 15.5963L34.1336 14.2607V11.6315H35.444V17.8643H34.1924Z" fill="black"/>
</svg>
